PathFileType  4	(X/Y/Z) C:\Users\antoi\Documents\MyRepositories\mobilecap\ResultsAnalysis
DataRate	CameraRate	NumFrames	NumMarkers	Units	OrigDataRate	OrigDataStartFrame	OrigNumFrames
100.0	100.0	5	51	mm	100.0	138	157
Frame#	Time	r_knee			r_shank_antsup			r_ankle			r_calc			r_5meta			r_toe			L_knee			L_shank_antsup			L_ankle			L_calc			L_5meta			L_toe			r_sh2			r_sh3			r_sh4			L_sh2			L_sh3			r_thigh1			r_thigh2			r_thigh3			r_thigh4			r_thigh5			L_thigh1			L_thigh2			L_thigh3			L_thigh4			r.ASIS			r.PSIS			L.ASIS			L.PSIS			C7			R_Shoulder			L_Shoulder			R_Sternum			L_Sternum			R_humerus			R_elbow_med			R_elbow_lat			R_forearm			R_wrist_radius			R_wrist_ulna			L_humerus			L_elbow_med			L_elbow_lat			L_forearm			L_wrist_radius			L_wrist_ulna			R_HJC			L_HJC			R_HJC_reg			L_HJC_reg			
		X1	Y1	Z1	X2	Y2	Z2	X3	Y3	Z3	X4	Y4	Z4	X5	Y5	Z5	X6	Y6	Z6	X7	Y7	Z7	X8	Y8	Z8	X9	Y9	Z9	X10	Y10	Z10	X11	Y11	Z11	X12	Y12	Z12	X13	Y13	Z13	X14	Y14	Z14	X15	Y15	Z15	X16	Y16	Z16	X17	Y17	Z17	X18	Y18	Z18	X19	Y19	Z19	X20	Y20	Z20	X21	Y21	Z21	X22	Y22	Z22	X23	Y23	Z23	X24	Y24	Z24	X25	Y25	Z25	X26	Y26	Z26	X27	Y27	Z27	X28	Y28	Z28	X29	Y29	Z29	X30	Y30	Z30	X31	Y31	Z31	X32	Y32	Z32	X33	Y33	Z33	X34	Y34	Z34	X35	Y35	Z35	X36	Y36	Z36	X37	Y37	Z37	X38	Y38	Z38	X39	Y39	Z39	X40	Y40	Z40	X41	Y41	Z41	X42	Y42	Z42	X43	Y43	Z43	X44	Y44	Z44	X45	Y45	Z45	X46	Y46	Z46	X47	Y47	Z47	X48	Y48	Z48	X49	Y49	Z49	X50	Y50	Z50	X51	Y51	Z51	

138	1.37000000	1502.67346	492.29552	-112.55572	1548.42806	451.55817	-127.43421	1498.17824	90.89245	-142.40213	1439.18754	59.74288	-190.82917	1642.22562	34.84894	-109.42445	1667.80277	61.82100	-165.65225	1155.37708	452.65565	-393.09301	1123.90144	368.93294	-407.79639	877.01303	152.11142	-350.79538	803.49743	153.60584	-300.01722	950.10164	38.03963	-355.79528	996.77175	47.52563	-305.75603	1553.42705	337.26677	-140.10123	1488.19661	440.39880	-79.63887	1495.98206	324.89431	-78.83275	1061.97134	434.14416	-410.31856	979.72275	347.20402	-405.26089	1448.58991	788.13562	-175.95054	1501.99576	691.06925	-172.90878	1510.92417	671.79415	-107.90985	1412.06522	769.39750	-70.27643	1465.93061	669.77529	-72.15893	1304.46838	742.14600	-422.67721	1261.31631	608.12679	-422.47447	1196.07871	775.90723	-409.86476	1154.93928	645.84515	-388.60119	1402.56287	920.16766	-140.39902	1206.61360	957.54049	-201.87007	1384.25113	888.28993	-372.64333	1197.98740	952.03848	-300.49080	1271.45681	1415.43367	-217.74206	1309.69575	1347.73341	-57.32137	1343.32085	1373.58019	-381.23329	1370.96471	1306.38548	-202.82531	1374.61856	1307.82454	-242.30491	1277.66570	1105.18426	8.67728	1220.67883	1022.64621	-34.11508	1240.33850	1019.93065	23.09375	1287.47558	885.23004	44.10099	1320.53670	784.80689	32.99398	1280.29320	782.18298	57.46558	1340.51259	1149.40868	-483.29703	1288.21394	1045.42560	-451.93569	1314.97937	1051.78157	-504.33869	1393.97477	931.27545	-524.96617	1444.58769	835.15225	-507.92826	1411.61285	823.16975	-533.81331	1320.06076	840.28782	-159.41153	1293.32206	827.81175	-347.77741	1327.90659	841.79611	-161.94044	1314.40295	833.18038	-316.31859	
139	1.38000000	1515.31559	492.28877	-113.47848	1560.54548	450.31111	-129.06234	1499.52311	91.07453	-142.92972	1439.51913	60.01614	-190.87315	1642.55864	34.19594	-109.50450	1668.28765	60.17479	-166.13635	1173.47452	449.54695	-392.95808	1140.02267	366.91049	-407.70598	885.91448	158.92173	-351.82925	812.83982	164.48077	-301.54257	952.38964	39.84100	-356.28319	999.40029	47.54521	-306.17781	1562.00282	335.74672	-141.77841	1500.75501	440.81491	-80.27594	1505.36226	325.09288	-79.44813	1080.14262	434.03405	-409.96111	995.30305	349.71592	-405.30781	1462.23555	788.72539	-176.10191	1515.52224	691.64103	-173.10601	1524.64634	672.36887	-108.07866	1426.04043	770.16698	-70.33155	1479.50427	670.30468	-72.48676	1317.87483	740.60809	-421.47371	1276.67298	606.01061	-421.76849	1209.09646	772.60185	-408.40909	1169.98260	642.16732	-387.79645	1415.61288	921.58362	-140.55977	1219.21057	957.43574	-201.99786	1396.64650	888.11554	-372.00857	1210.25827	951.22347	-300.57008	1283.79347	1414.59917	-213.63609	1321.46503	1344.96009	-53.85009	1356.96520	1374.66508	-377.05697	1383.37246	1305.31095	-199.20883	1387.11603	1307.12401	-238.68802	1290.02219	1101.94138	10.21191	1233.56776	1019.46414	-33.33814	1252.82084	1016.51460	23.93159	1299.68827	881.72992	44.76825	1332.74395	781.31299	33.54774	1292.29726	778.67704	57.55851	1352.22744	1151.17758	-480.90767	1298.55079	1047.62523	-450.14706	1325.50280	1054.02030	-502.49117	1402.80786	932.31766	-523.39758	1451.72037	835.19796	-506.58102	1418.69530	823.96409	-532.74825	1333.32205	841.17157	-158.74691	1306.30417	827.18818	-346.97505	1341.33851	842.82976	-161.24045	1327.36207	833.12437	-315.16590	
140	1.39000000	1526.65287	491.72182	-114.46239	1571.43366	448.71127	-130.56519	1500.56581	91.17420	-143.61581	1439.73313	60.18967	-190.96059	1642.82985	33.97070	-109.57641	1668.53377	59.10658	-166.56919	1192.45714	446.45911	-393.02455	1156.92610	364.90295	-407.53357	895.99865	166.39762	-352.66197	823.75376	176.30124	-302.76519	955.11071	42.46475	-356.73363	1002.43908	47.96179	-306.58493	1569.78719	334.03089	-143.40002	1511.87070	440.71060	-81.21752	1513.56058	324.84556	-80.41530	1099.33076	434.06213	-409.69991	1011.99304	352.34972	-405.30555	1475.94129	788.78793	-175.64741	1528.56140	691.32796	-172.79603	1537.31636	671.74347	-107.80804	1439.35277	770.18069	-70.09584	1491.90003	669.84020	-72.61392	1331.23808	739.43271	-420.32822	1292.37672	604.20384	-421.20954	1222.04782	769.36236	-406.78279	1185.37634	638.48465	-386.90103	1428.70962	922.88221	-140.75127	1231.81017	957.54736	-201.66164	1408.71414	888.27942	-371.46813	1222.33626	950.69710	-300.16019	1295.95541	1413.96517	-209.70336	1333.20554	1342.40875	-50.57022	1370.41938	1375.83205	-373.00501	1395.62096	1304.40175	-195.78896	1399.42959	1306.55864	-235.26684	1302.38783	1098.95422	11.67709	1246.45065	1016.52669	-32.57376	1265.35807	1013.35511	24.74406	1312.07942	878.50746	45.36540	1345.22400	778.12690	34.02752	1304.56829	775.46808	57.54823	1364.10843	1153.06571	-478.57426	1308.80404	1050.05975	-448.71314	1336.23534	1056.39776	-500.83798	1411.79419	933.50030	-521.84925	1458.82298	835.34395	-505.09026	1425.82861	824.95326	-531.67442	1346.58205	842.05392	-158.08983	1318.91124	826.92565	-346.13756	1354.71477	844.00699	-160.50984	1339.95980	833.33051	-313.97508	
141	1.40000000	1536.76170	490.76848	-115.45614	1581.07148	446.91510	-131.77658	1501.39191	91.25156	-144.32872	1439.87987	60.30756	-191.06833	1643.06182	33.97043	-109.62504	1668.64340	58.44776	-166.89650	1212.19734	443.50304	-393.27319	1174.46802	362.96550	-407.26852	907.30164	174.47512	-353.29597	836.32065	188.93879	-303.65097	958.34817	46.03115	-357.12587	1005.91813	48.87126	-306.99106	1576.77396	332.23948	-144.73663	1521.41218	440.27645	-82.40994	1520.46467	324.33734	-81.60290	1119.44048	434.22861	-409.60873	1029.63998	355.12692	-405.21931	1489.50332	788.51465	-174.84113	1541.01623	690.40007	-172.23802	1549.00835	670.28051	-107.35129	1452.02803	769.68925	-69.71214	1503.28191	668.71474	-72.67903	1344.54913	738.63573	-419.28307	1308.34401	602.74658	-420.82374	1234.88580	766.32700	-405.05899	1201.03657	634.91514	-385.94536	1441.72961	924.03356	-140.99624	1244.33833	957.90541	-200.91977	1420.40162	888.77262	-371.03170	1234.17793	950.44553	-299.31084	1307.93978	1413.55048	-205.94721	1344.90551	1340.12040	-47.48025	1383.53103	1377.08563	-369.15103	1407.68056	1303.69456	-192.61865	1411.51147	1306.17349	-232.08283	1314.75543	1096.24173	13.05525	1259.31009	1013.85431	-31.82355	1277.96001	1010.47348	25.52521	1324.65265	875.59077	45.87434	1357.95747	775.25789	34.42349	1317.08189	772.56833	57.45818	1376.09441	1155.02914	-476.29710	1318.95457	1052.71232	-447.67274	1347.15401	1058.87245	-499.39654	1420.97955	934.82512	-520.34021	1465.97336	835.61013	-503.47367	1433.15351	826.14978	-530.64649	1359.73147	842.92171	-157.47076	1331.07747	827.01834	-345.30536	1367.89695	845.38931	-159.76418	1352.10617	833.78929	-312.74672	
142	1.41000000	1545.78926	489.64316	-116.38508	1589.52558	445.09399	-132.57736	1502.09373	91.39193	-144.93397	1439.99356	60.40222	-191.17770	1643.25938	34.04736	-109.64728	1668.69903	58.06021	-167.09879	1232.55392	440.78984	-393.67923	1192.57131	361.17680	-406.93975	919.84186	183.03343	-353.73682	850.56356	202.19374	-304.17583	962.21182	50.60086	-357.44556	1009.90406	50.34949	-307.41681	1582.97786	330.50103	-145.60640	1529.40975	439.73403	-83.74428	1526.07909	323.78162	-82.84586	1140.34599	434.50654	-409.70995	1048.06505	358.05991	-404.99425	1502.66279	788.11918	-173.98139	1552.81541	689.20020	-171.69973	1559.86866	668.44221	-106.95447	1464.12829	769.01424	-69.33298	1513.90198	667.34365	-72.79470	1357.79073	738.21960	-418.37710	1324.48495	601.66465	-420.62073	1247.57242	763.61818	-403.32887	1216.87680	631.55032	-384.98968	1454.54578	925.06562	-141.29283	1256.69670	958.51068	-199.90537	1431.69348	889.57730	-370.69948	1245.74503	950.44444	-298.15187	1319.75614	1413.36960	-202.36777	1356.55878	1338.14539	-44.57746	1396.17530	1378.44607	-365.56065	1419.53774	1303.22696	-189.74195	1423.33555	1306.01553	-229.16963	1327.12806	1093.83941	14.32959	1272.13823	1011.48431	-31.09183	1290.63953	1007.90469	26.26561	1337.41271	873.02182	46.27380	1370.91203	772.72527	34.71236	1329.83884	770.00344	57.29351	1388.07238	1157.03885	-474.08870	1328.99257	1055.54212	-446.99886	1358.17951	1061.41471	-498.16042	1430.38083	936.30678	-518.88335	1473.24445	836.03612	-501.76363	1440.80577	827.56396	-529.71039	1372.65516	843.79100	-156.92257	1342.79270	827.44076	-344.52687	1380.76547	847.00160	-159.02653	1363.77431	834.48345	-311.50883	
